<svg width="81" height="64" viewBox="0 0 81 64" fill="none" xmlns="http://www.w3.org/2000/svg">
<path opacity="0.8" d="M75.1347 56.7273V21.8182C74.1714 22.9091 73.1329 23.9091 72.0191 24.8182C63.9518 31.0606 57.5401 36.1818 52.7839 40.1818C51.2487 41.4848 49.9995 42.5 49.0362 43.2273C48.073 43.9545 46.771 44.6894 45.1305 45.4318C43.4899 46.1742 41.9472 46.5455 40.5023 46.5455H40.412C38.9671 46.5455 37.4244 46.1742 35.7838 45.4318C34.1432 44.6894 32.8413 43.9545 31.8781 43.2273C30.9148 42.5 29.6656 41.4848 28.1304 40.1818C23.3742 36.1818 16.9625 31.0606 8.89515 24.8182C7.78138 23.9091 6.74286 22.9091 5.77959 21.8182V56.7273C5.77959 57.1212 5.92258 57.4621 6.20855 57.75C6.49452 58.0379 6.83316 58.1818 7.22449 58.1818H73.6898C74.0811 58.1818 74.4198 58.0379 74.7057 57.75C74.9917 57.4621 75.1347 57.1212 75.1347 56.7273ZM75.1347 8.95455V7.84091L75.1121 7.25L74.9767 6.68182L74.7283 6.27273L74.3219 5.93182L73.6898 5.81818H7.22449C6.83316 5.81818 6.49452 5.96212 6.20855 6.25C5.92258 6.53788 5.77959 6.87879 5.77959 7.27273C5.77959 12.3636 7.99209 16.6667 12.4171 20.1818C18.2268 24.7879 24.2622 29.5909 30.5235 34.5909C30.7041 34.7424 31.2309 35.1894 32.1038 35.9318C32.9768 36.6742 33.6691 37.2424 34.1809 37.6364C34.6926 38.0303 35.3624 38.5076 36.1902 39.0682C37.018 39.6288 37.7781 40.0455 38.4704 40.3182C39.1628 40.5909 39.81 40.7273 40.412 40.7273H40.5023C41.1043 40.7273 41.7515 40.5909 42.4439 40.3182C43.1362 40.0455 43.8963 39.6288 44.7241 39.0682C45.5519 38.5076 46.2217 38.0303 46.7334 37.6364C47.2452 37.2424 47.9375 36.6742 48.8105 35.9318C49.6834 35.1894 50.2102 34.7424 50.3908 34.5909C56.652 29.5909 62.6875 24.7879 68.4972 20.1818C70.1227 18.8788 71.6353 17.1288 73.0351 14.9318C74.4348 12.7348 75.1347 10.7424 75.1347 8.95455ZM80.9143 7.27273V56.7273C80.9143 58.7273 80.2069 60.4394 78.7921 61.8636C77.3773 63.2879 75.6765 64 73.6898 64H7.22449C5.23776 64 3.53699 63.2879 2.12219 61.8636C0.707398 60.4394 0 58.7273 0 56.7273V7.27273C0 5.27273 0.707398 3.56061 2.12219 2.13636C3.53699 0.712121 5.23776 0 7.22449 0H73.6898C75.6765 0 77.3773 0.712121 78.7921 2.13636C80.2069 3.56061 80.9143 5.27273 80.9143 7.27273Z" fill="#1E4061"/>
</svg>
