<svg width="113" height="70" viewBox="0 0 113 70" fill="none" xmlns="http://www.w3.org/2000/svg">
<path opacity="0.8" d="M104.475 3H8.34079C5.39167 3 3 5.38833 3 8.33333V61.6667C3 64.6117 5.39167 67 8.34079 67H104.475C107.424 67 109.816 64.6117 109.816 61.6667V8.33333C109.816 5.38833 107.424 3 104.475 3ZM11.0112 59V48.3333C16.9111 48.3333 21.6928 53.1083 21.6928 59H11.0112ZM11.0112 21.6667V11H21.6928C21.6928 16.8917 16.9111 21.6667 11.0112 21.6667ZM56.4079 51C49.0326 51 43.0559 43.835 43.0559 35C43.0559 26.1633 49.0343 19 56.4079 19C63.7816 19 69.7599 26.1633 69.7599 35C69.7599 43.8383 63.7799 51 56.4079 51ZM101.805 59H91.1231C91.1231 53.1083 95.9048 48.3333 101.805 48.3333V59ZM101.805 21.6667C95.9048 21.6667 91.1231 16.8917 91.1231 11H101.805V21.6667Z" stroke="#1E4061" stroke-width="5"/>
</svg>
