<svg width="52" height="64" viewBox="0 0 52 64" fill="none" xmlns="http://www.w3.org/2000/svg">
<path opacity="0.8" d="M9.6 0H41.6C44.1461 0 46.5879 1.01143 48.3882 2.81178C50.1886 4.61212 51.2 7.05392 51.2 9.6V54.4C51.2 56.9461 50.1886 59.3879 48.3882 61.1882C46.5879 62.9886 44.1461 64 41.6 64H9.6C7.05392 64 4.61212 62.9886 2.81177 61.1882C1.01143 59.3879 0 56.9461 0 54.4V9.6C0 7.05392 1.01143 4.61212 2.81177 2.81178C4.61212 1.01143 7.05392 0 9.6 0ZM9.6 6.4C8.7513 6.4 7.93737 6.73714 7.33726 7.33726C6.73714 7.93738 6.4 8.75131 6.4 9.6V54.4C6.4 55.2487 6.73714 56.0626 7.33726 56.6627C7.93737 57.2629 8.7513 57.6 9.6 57.6H41.6C42.4487 57.6 43.2626 57.2629 43.8627 56.6627C44.4628 56.0626 44.8 55.2487 44.8 54.4V9.6C44.8 8.75131 44.4628 7.93738 43.8627 7.33726C43.2626 6.73714 42.4487 6.4 41.6 6.4H9.6ZM16 9.6H35.2C36.0487 9.6 36.8626 9.93714 37.4627 10.5373C38.0628 11.1374 38.4 11.9513 38.4 12.8C38.4 13.6487 38.0628 14.4626 37.4627 15.0627C36.8626 15.6629 36.0487 16 35.2 16H16C15.1513 16 14.3374 15.6629 13.7373 15.0627C13.1371 14.4626 12.8 13.6487 12.8 12.8C12.8 11.9513 13.1371 11.1374 13.7373 10.5373C14.3374 9.93714 15.1513 9.6 16 9.6ZM16 48H22.4C23.2487 48 24.0626 48.3371 24.6627 48.9373C25.2628 49.5374 25.6 50.3513 25.6 51.2C25.6 52.0487 25.2628 52.8626 24.6627 53.4627C24.0626 54.0629 23.2487 54.4 22.4 54.4H16C15.1513 54.4 14.3374 54.0629 13.7373 53.4627C13.1371 52.8626 12.8 52.0487 12.8 51.2C12.8 50.3513 13.1371 49.5374 13.7373 48.9373C14.3374 48.3371 15.1513 48 16 48ZM16 35.2H35.2C36.0487 35.2 36.8626 35.5371 37.4627 36.1373C38.0628 36.7374 38.4 37.5513 38.4 38.4C38.4 39.2487 38.0628 40.0626 37.4627 40.6627C36.8626 41.2629 36.0487 41.6 35.2 41.6H16C15.1513 41.6 14.3374 41.2629 13.7373 40.6627C13.1371 40.0626 12.8 39.2487 12.8 38.4C12.8 37.5513 13.1371 36.7374 13.7373 36.1373C14.3374 35.5371 15.1513 35.2 16 35.2ZM16 22.4H35.2C36.0487 22.4 36.8626 22.7371 37.4627 23.3373C38.0628 23.9374 38.4 24.7513 38.4 25.6C38.4 26.4487 38.0628 27.2626 37.4627 27.8627C36.8626 28.4629 36.0487 28.8 35.2 28.8H16C15.1513 28.8 14.3374 28.4629 13.7373 27.8627C13.1371 27.2626 12.8 26.4487 12.8 25.6C12.8 24.7513 13.1371 23.9374 13.7373 23.3373C14.3374 22.7371 15.1513 22.4 16 22.4Z" fill="#1E4061"/>
</svg>
