<svg width="85" height="65" viewBox="0 0 85 65" fill="none" xmlns="http://www.w3.org/2000/svg">
<path opacity="0.8" d="M77.3626 0.5H7.03297C3.15018 0.5 0 3.57143 0 7.35714V57.6429C0 61.4286 3.15018 64.5 7.03297 64.5H77.3626C81.2454 64.5 84.3956 61.4286 84.3956 57.6429V7.35714C84.3956 3.57143 81.2454 0.5 77.3626 0.5ZM77.3626 57.6429H7.03297V7.35714H77.3626V57.6429ZM30.4762 32.5C35.6483 32.5 39.8535 28.4 39.8535 23.3571C39.8535 18.3143 35.6483 14.2143 30.4762 14.2143C25.304 14.2143 21.0989 18.3143 21.0989 23.3571C21.0989 28.4 25.304 32.5 30.4762 32.5ZM17.348 50.7857H43.6044C45.4212 50.7857 46.8864 49.5571 46.8864 48.0429V45.3C46.8864 40.7571 42.4762 37.0714 37.0403 37.0714C35.4579 37.0714 34.3004 38.2143 30.4762 38.2143C26.5348 38.2143 25.5824 37.0714 23.9121 37.0714C18.4762 37.0714 14.0659 40.7571 14.0659 45.3V48.0429C14.0659 49.5571 15.5311 50.7857 17.348 50.7857ZM52.7473 41.6429H69.1575C69.8022 41.6429 70.3297 41.1286 70.3297 40.5V38.2143C70.3297 37.5857 69.8022 37.0714 69.1575 37.0714H52.7473C52.1026 37.0714 51.5751 37.5857 51.5751 38.2143V40.5C51.5751 41.1286 52.1026 41.6429 52.7473 41.6429ZM52.7473 32.5H69.1575C69.8022 32.5 70.3297 31.9857 70.3297 31.3571V29.0714C70.3297 28.4429 69.8022 27.9286 69.1575 27.9286H52.7473C52.1026 27.9286 51.5751 28.4429 51.5751 29.0714V31.3571C51.5751 31.9857 52.1026 32.5 52.7473 32.5ZM52.7473 23.3571H69.1575C69.8022 23.3571 70.3297 22.8429 70.3297 22.2143V19.9286C70.3297 19.3 69.8022 18.7857 69.1575 18.7857H52.7473C52.1026 18.7857 51.5751 19.3 51.5751 19.9286V22.2143C51.5751 22.8429 52.1026 23.3571 52.7473 23.3571Z" fill="#1E4061"/>
</svg>
