<svg width="90" height="70" viewBox="0 0 90 70" fill="none" xmlns="http://www.w3.org/2000/svg">
<path opacity="0.8" d="M87.4371 13.8235C87.5877 14.3694 87.3976 14.9718 87.0795 15.4424L76.9336 30.5388C76.5571 31.1224 75.7665 31.4424 75.1058 31.4424C74.9176 31.4424 74.3905 31.4047 74.1853 31.3482L66.0536 29.3529V65.1176C66.0536 66.2094 65.2818 67 64.1712 67H24.6418C23.5312 67 22.7595 66.2094 22.7595 65.1176V29.3529L15.4559 31.3671C14.6089 31.6306 13.8748 31.2918 13.4042 30.5576L3.33359 15.4988C3.01359 15.0094 2.91947 14.4635 3.07006 13.9176C3.20183 13.3529 3.59712 12.9765 4.10535 12.7129L24.6418 3H34.0536C35.1642 3 35.9359 3.77176 35.9359 4.88235C35.9359 8.76 41.3759 11.5082 45.2536 11.5082C49.1312 11.5082 54.7595 8.77882 54.7595 4.88235C54.7595 3.79059 55.5312 3 56.6418 3H66.0536L86.383 12.5247C86.91 12.7882 87.2865 13.2588 87.4371 13.8235V13.8235Z" stroke="#1E4061" stroke-width="5"/>
</svg>
