<svg width="71" height="70" viewBox="0 0 71 70" fill="none" xmlns="http://www.w3.org/2000/svg">
<g opacity="0.8">
<path d="M42.1078 32.9038C42.1073 34.5002 41.4726 36.0309 40.3435 37.1593C39.2143 38.2877 37.6832 38.9213 36.0868 38.9208C34.4905 38.9203 32.9597 38.2856 31.8313 37.1565C30.7029 36.0273 30.0693 34.4961 30.0698 32.8998C30.0704 31.3035 30.705 29.7727 31.8342 28.6443C32.9633 27.5159 34.4945 26.8823 36.0908 26.8828C37.6872 26.8833 39.2179 27.518 40.3463 28.6472C41.4747 29.7763 42.1084 31.3075 42.1078 32.9038V32.9038Z" stroke="#1E4061" stroke-width="5"/>
<path d="M61.2417 18.864H51.0529C49.2124 18.864 47.4473 19.5951 46.1458 20.8966C44.8444 22.198 44.1133 23.9631 44.1133 25.8036V38.9207C44.1133 39.9845 44.5359 41.0048 45.2882 41.7571C46.0404 42.5094 47.0607 42.932 48.1246 42.932V67H64.1699V42.932C65.2338 42.932 66.2541 42.5094 67.0064 41.7571C67.7586 41.0048 68.1813 39.9845 68.1813 38.9207V25.8036C68.1813 23.9631 67.4501 22.198 66.1487 20.8966C64.8473 19.5951 63.0822 18.864 61.2417 18.864V18.864Z" stroke="#1E4061" stroke-width="5"/>
<path d="M64.1702 10.8413C64.1944 11.9097 64.0048 12.9721 63.6128 13.9662C63.2207 14.9603 62.6339 15.8661 61.887 16.6303C61.14 17.3946 60.2479 18.0019 59.263 18.4166C58.2781 18.8313 57.2203 19.045 56.1516 19.0453C55.083 19.0456 54.025 18.8323 53.0399 18.4181C52.0548 18.0039 51.1624 17.3971 50.4151 16.6332C49.6677 15.8693 49.0805 14.9639 48.6879 13.9699C48.2953 12.976 48.1053 11.9137 48.1289 10.8453C48.1753 8.74913 49.0404 6.7544 50.5391 5.28812C52.0378 3.82184 54.0509 3.00052 56.1476 3C58.2443 2.99948 60.2578 3.81978 61.7573 5.28531C63.2567 6.75085 64.1228 8.74514 64.1702 10.8413V10.8413Z" stroke="#1E4061" stroke-width="5"/>
<path d="M10.9396 22.8752H21.1284C22.0397 22.8752 22.9421 23.0547 23.784 23.4035C24.626 23.7522 25.391 24.2634 26.0354 24.9078C26.6798 25.5522 27.191 26.3172 27.5397 27.1592C27.8885 28.0011 28.068 28.9035 28.068 29.8148V38.9206C28.068 39.9844 27.6453 41.0047 26.8931 41.757C26.1408 42.5093 25.1205 42.9319 24.0566 42.9319L28.068 54.9659H24.0566V66.9999H8.01133V54.9659H4L8.01133 42.9319C6.94746 42.9319 5.92716 42.5093 5.17489 41.757C4.42262 41.0047 4 39.9844 4 38.9206V29.8148C4 27.9743 4.73113 26.2092 6.03256 24.9078C7.33399 23.6064 9.0991 22.8752 10.9396 22.8752ZM10.9396 22.8752C10.028 22.8755 9.12541 23.0553 8.28331 23.4044C7.44122 23.7535 6.67613 24.265 6.03173 24.9098" stroke="#1E4061" stroke-width="5"/>
<path d="M24.0564 14.8525C24.0806 15.9209 23.8911 16.9833 23.499 17.9774C23.1069 18.9716 22.5201 19.8773 21.7732 20.6416C21.0262 21.4058 20.1341 22.0131 19.1492 22.4278C18.1643 22.8425 17.1065 23.0563 16.0378 23.0565C14.9692 23.0568 13.9113 22.8436 12.9262 22.4294C11.9411 22.0151 11.0486 21.4083 10.3013 20.6444C9.55396 19.8806 8.96676 18.9751 8.57417 17.9812C8.18158 16.9872 7.99152 15.9249 8.01514 14.8565C8.0615 12.7604 8.92662 10.7656 10.4253 9.29935C11.924 7.83307 13.9372 7.01176 16.0338 7.01123C18.1305 7.01071 20.1441 7.83101 21.6435 9.29654C23.1429 10.7621 24.009 12.7564 24.0564 14.8525V14.8525Z" stroke="#1E4061" stroke-width="5"/>
<path d="M32.0792 54.966V67H40.1019V54.966C41.1657 54.966 42.186 54.5433 42.9383 53.7911C43.6906 53.0388 44.1132 52.0185 44.1132 50.9546V44.7772C44.1132 43.2239 43.4962 41.7343 42.3978 40.636C41.2995 39.5377 39.8099 38.9207 38.2566 38.9207H33.9244C32.3712 38.9207 30.8815 39.5377 29.7832 40.636C28.6849 41.7343 28.0679 43.2239 28.0679 44.7772V50.9546C28.0679 52.0185 28.4905 53.0388 29.2428 53.7911C29.995 54.5433 31.0153 54.966 32.0792 54.966Z" stroke="#1E4061" stroke-width="5"/>
</g>
</svg>
