<svg width="64" height="64" viewBox="0 0 64 64" fill="none" xmlns="http://www.w3.org/2000/svg">
<path opacity="0.8" d="M32 9.10578L7.11111 29.0169V56.8889H24.8889V42.6667H39.1111V56.8889H56.8889V30.7271C56.8891 30.1939 56.7694 29.6675 56.5386 29.1868C56.3078 28.7061 55.9718 28.2835 55.5556 27.9502L32 9.10578ZM32 0L59.9964 22.4C61.2449 23.3987 62.2529 24.6652 62.9459 26.106C63.6388 27.5467 63.9991 29.1248 64 30.7236V56.8889C64 58.7749 63.2508 60.5836 61.9172 61.9172C60.5836 63.2508 58.7749 64 56.8889 64H7.11111C5.22513 64 3.41639 63.2508 2.0828 61.9172C0.749204 60.5836 0 58.7749 0 56.8889V29.0169C0.00013297 27.9511 0.239853 26.8989 0.701434 25.9382C1.16301 24.9775 1.83465 24.1328 2.66667 23.4667L32 0Z" fill="#1E4061"/>
</svg>
